<svg class="svg-icon" style="width: 1em;height: 1em;vertical-align: middle;fill: currentColor;overflow: hidden;" viewBox="0 0 1024 1024" version="1.1" xmlns="http://www.w3.org/2000/svg"><path d="M186.181818 679.563636c27.927273-18.618182 46.545455-46.545455 46.545455-74.472727 0-37.236364-18.618182-65.163636-55.854546-83.781818V409.6L512 558.545455 1024 325.818182 512 93.090909 0 325.818182l111.709091 46.545454v148.945455c-37.236364 18.618182-55.854545 46.545455-55.854546 83.781818 0 27.927273 18.618182 55.854545 46.545455 74.472727L55.854545 837.818182c-27.927273 93.090909 46.545455 93.090909 46.545455 93.090909h93.090909s74.472727 0 46.545455-93.090909L186.181818 679.563636z"  /><path d="M325.818182 577.163636v27.927273c0 37.236364-18.618182 74.472727-37.236364 102.4 18.618182 37.236364 37.236364 74.472727 37.236364 130.327273v55.854545c46.545455 18.618182 111.709091 37.236364 186.181818 37.236364C744.727273 930.909091 837.818182 791.272727 837.818182 791.272727v-279.272727L512 660.945455l-186.181818-83.781819z"  /></svg>