<svg class="svg-icon" style="width: 1em;height: 1em;vertical-align: middle;fill: currentColor;overflow: hidden;" viewBox="0 0 1024 1024" version="1.1" xmlns="http://www.w3.org/2000/svg"><path d="M893.44 325.461333v176.128H135.509333V325.461333a56.490667 56.490667 0 0 1 20.309334-46.933333 68.266667 68.266667 0 0 1 51.2-17.066667H358.4v-76.970666a49.322667 49.322667 0 0 1 10.069333-29.354667A36.522667 36.522667 0 0 1 392.533333 143.36h248.32a36.522667 36.522667 0 0 1 24.746667 11.776 48.128 48.128 0 0 1 10.069333 29.354667v76.288h146.602667a102.4 102.4 0 0 1 51.2 17.066666 56.32 56.32 0 0 1 19.968 47.616z m0 217.258667v211.456a77.141333 77.141333 0 0 1-20.138667 52.736 68.266667 68.266667 0 0 1-51.2 17.066667H206.336a101.376 101.376 0 0 1-51.2-17.066667 94.378667 94.378667 0 0 1-20.309333-52.736V542.72h283.648v70.485333c0 5.802667 5.12 11.776 5.12 17.066667 5.12 5.973333 10.069333 5.973333 20.138666 5.973333h136.533334a26.794667 26.794667 0 0 0 20.138666-4.778666c5.12-5.802667 10.069333-11.776 5.12-17.066667v-71.68zM408.405333 249.173333h217.258667v-58.88H408.405333z m161.621334 293.546667v58.709333h-111.104V542.72z" fill="#FFBE61" /></svg>