<svg class="svg-icon" style="width: 1em;height: 1em;vertical-align: middle;fill: currentColor;overflow: hidden;" viewBox="0 0 1024 1024" version="1.1" xmlns="http://www.w3.org/2000/svg"><path d="M940.7 323L540.9 72.1c-17.1-10.7-40.7-10.7-57.8 0L83.3 323c-25.7 16.1-25.7 48.4 0 64.5l44.9 28.2v200.8H93.6c-5.6 0-10.2 5-10.2 11.1s4.6 11.1 10.2 11.1h5.1v77.6c0 20.7 13 38 30.5 42.9v3.1c0 6.1 4.6 11.1 10.2 11.1s10.2-5 10.2-11.1v-3.1c17.6-4.9 30.5-22.2 30.5-42.9v-77.6h5.1c5.6 0 10.2-5 10.2-11.1s-4.6-11.1-10.2-11.1h-34.6V429.7l332.5 208.6c17.1 10.7 40.7 10.7 57.8 0l399.8-250.9c25.7-16.1 25.7-48.3 0-64.4z m-786 393.2v-11.1c0-3.1 2.3-5.5 5.1-5.5s5.1 2.5 5.1 5.5v11.1c0 15.3-11.4 27.7-25.5 27.7-2.8 0-5.1-2.5-5.1-5.5s2.3-5.5 5.1-5.5c8.4 0 15.3-7.5 15.3-16.7zM302.9 393c10.5 6.6 13.7 20.4 7.1 30.9-4.2 6.8-11.5 10.5-19 10.5-4.1 0-8.2-1.1-11.9-3.4l-60.6-38.1c-13.1-8.2-20.9-22.3-20.9-37.7s7.8-29.5 20.9-37.7l63.7-39.9c10.5-6.6 24.3-3.4 30.9 7.1 6.6 10.5 3.4 24.3-7.1 30.9l-63.7 39.9 60.6 37.5z"  /><path d="M220.8 528.8v301.9c0 13.5 5.9 26.5 16.5 34.8C313.1 924.6 408.4 960 512 960s198.9-35.4 274.7-94.5c10.6-8.3 16.5-21.3 16.5-34.8V528.8L534.9 688.7a44.77 44.77 0 0 1-45.8 0L220.8 528.8z"  /></svg>